<svg width="268" height="268" viewBox="0 0 268 268" fill="none" xmlns="http://www.w3.org/2000/svg" xmlns:xlink="http://www.w3.org/1999/xlink">
<path d="M134,234.5C189.505,234.5 234.5,189.505 234.5,134C234.5,78.495 189.505,33.5 134,33.5C78.495,33.5 33.5,78.495 33.5,134C33.5,189.505 78.495,234.5 134,234.5Z" fill="#52B46B"/>
<path d="M184.204,113.216C186.602,110.929 186.691,107.131 184.404,104.733C182.117,102.336 178.318,102.246 175.921,104.534L184.204,113.216ZM118.611,167.5L114.466,171.838C116.783,174.053 120.433,174.054 122.753,171.841L118.611,167.5ZM92.083,133.85C89.687,131.56 85.889,131.646 83.6,134.042C81.31,136.438 81.397,140.236 83.792,142.525L92.083,133.85ZM175.921,104.534L114.469,163.159L122.753,171.841L184.204,113.216L175.921,104.534ZM122.756,163.162L92.083,133.85L83.792,142.525L114.466,171.838L122.756,163.162Z" fill="#FFFFFF"/>
</svg>
