<svg width="40" height="40" viewBox="0 0 40 40" fill="none" xmlns="http://www.w3.org/2000/svg" xmlns:xlink="http://www.w3.org/1999/xlink">
<path d="M10.174,18.799C9.622,18.799 9.174,19.247 9.174,19.799C9.174,20.351 9.622,20.799 10.174,20.799L10.174,18.799ZM29.424,20.799C29.976,20.799 30.424,20.351 30.424,19.799C30.424,19.247 29.976,18.799 29.424,18.799L29.424,20.799ZM10.174,20.799L29.424,20.799L29.424,18.799L10.174,18.799L10.174,20.799Z" transform="rotate(-90 19.799 19.799)" fill="#757575"/>
<path d="M20.799,10.174C20.799,9.622 20.351,9.174 19.799,9.174C19.247,9.174 18.799,9.622 18.799,10.174L20.799,10.174ZM18.799,29.424C18.799,29.976 19.247,30.424 19.799,30.424C20.351,30.424 20.799,29.976 20.799,29.424L18.799,29.424ZM18.799,10.174L18.799,29.424L20.799,29.424L20.799,10.174L18.799,10.174Z" transform="rotate(-90 19.799 19.799)" fill="#757575"/>
</svg>
