<svg width="54" height="52" viewBox="0 0 54 52" fill="none" xmlns="http://www.w3.org/2000/svg" xmlns:xlink="http://www.w3.org/1999/xlink">
<path d="M9.404,-1C4.21,-1 0,3.21 0,8.404L0,41.679C0,46.873 4.21,51.083 9.404,51.083L42.679,51.083C47.873,51.083 52.083,46.873 52.083,41.679L52.083,8.404C52.083,3.21 47.873,-1 42.679,-1L9.404,-1ZM41.319,17.173L21.777,36.693C20.93,37.539 19.556,37.539 18.709,36.692L10.764,28.746C9.917,27.899 9.917,26.525 10.764,25.677C11.612,24.83 12.986,24.83 13.833,25.677L20.245,32.089L38.252,14.102C39.1,13.255 40.474,13.256 41.321,14.104C42.168,14.952 42.168,16.326 41.319,17.173Z" fill="#14FF00"/>
</svg>
