<svg width="32" height="30" viewBox="0 0 32 30" fill="none" xmlns="http://www.w3.org/2000/svg" xmlns:xlink="http://www.w3.org/1999/xlink">
<path d="M5.642,-0.091C2.526,-0.091 0,2.195 0,5.015L0,23.08C0,25.9 2.526,28.185 5.642,28.185L25.608,28.185C28.724,28.185 31.25,25.9 31.25,23.08L31.25,5.015C31.25,2.195 28.724,-0.091 25.608,-0.091L5.642,-0.091ZM24.792,9.776L13.066,20.373C12.558,20.832 11.734,20.832 11.226,20.372L6.459,16.059C5.95,15.598 5.95,14.852 6.459,14.392C6.967,13.932 7.792,13.932 8.3,14.393L12.147,17.873L22.951,8.108C23.46,7.649 24.285,7.649 24.793,8.109C25.301,8.57 25.301,9.316 24.792,9.776Z" fill="#909090" fill-opacity="0.2"/>
</svg>
