<svg width="32" height="28" viewBox="0 0 32 28" fill="none" xmlns="http://www.w3.org/2000/svg" xmlns:xlink="http://www.w3.org/1999/xlink">
<path d="M5.642,-0.344C2.526,-0.344 0,1.941 0,4.761L0,22.826C0,25.646 2.526,27.932 5.642,27.932L25.608,27.932C28.724,27.932 31.25,25.646 31.25,22.826L31.25,4.761C31.25,1.941 28.724,-0.344 25.608,-0.344L5.642,-0.344ZM24.792,9.522L13.066,20.119C12.558,20.579 11.734,20.578 11.226,20.118L6.459,15.805C5.95,15.345 5.95,14.599 6.459,14.139C6.967,13.679 7.792,13.679 8.3,14.139L12.147,17.62L22.951,7.855C23.46,7.395 24.285,7.395 24.793,7.856C25.301,8.316 25.301,9.062 24.792,9.522Z" fill="#909090" fill-opacity="0.2"/>
</svg>
