<svg width="20" height="30" viewBox="0 0 20 30" fill="none" xmlns="http://www.w3.org/2000/svg" xmlns:xlink="http://www.w3.org/1999/xlink">
<path d="M15.565,28.007C16.397,28.733 17.661,28.647 18.387,27.815C19.113,26.982 19.026,25.719 18.194,24.993L15.565,28.007ZM2.546,14L1.231,12.493C0.796,12.873 0.546,13.422 0.546,14C0.546,14.578 0.796,15.127 1.231,15.507L2.546,14ZM18.194,3.007C19.026,2.281 19.113,1.018 18.387,0.185C17.661,-0.647 16.397,-0.733 15.565,-0.007L18.194,3.007ZM18.194,24.993L3.86,12.493L1.231,15.507L15.565,28.007L18.194,24.993ZM3.86,15.507L18.194,3.007L15.565,-0.007L1.231,12.493L3.86,15.507Z" fill="#000000"/>
</svg>
