<svg width="32" height="28" viewBox="0 0 32 28" fill="none" xmlns="http://www.w3.org/2000/svg" xmlns:xlink="http://www.w3.org/1999/xlink">
<path d="M5.642,-0.816C2.526,-0.816 0,1.47 0,4.29L0,22.355C0,25.175 2.526,27.46 5.642,27.46L25.608,27.46C28.724,27.46 31.25,25.175 31.25,22.355L31.25,4.29C31.25,1.47 28.724,-0.816 25.608,-0.816L5.642,-0.816ZM24.792,9.051L13.066,19.648C12.558,20.107 11.734,20.107 11.226,19.647L6.459,15.334C5.95,14.873 5.95,14.127 6.459,13.667C6.967,13.207 7.792,13.207 8.3,13.667L12.147,17.148L22.951,7.383C23.46,6.924 24.285,6.924 24.793,7.384C25.301,7.845 25.301,8.591 24.792,9.051Z" fill="#909090" fill-opacity="0.2"/>
</svg>
