<svg width="60" height="54" viewBox="0 0 60 54" fill="none" xmlns="http://www.w3.org/2000/svg" xmlns:xlink="http://www.w3.org/1999/xlink">
<path d="M43.985,51.507L43.237,52.808L43.241,52.81L43.985,51.507ZM47.43,49.157L48.874,48.752L48.874,48.751L47.43,49.157ZM43.438,34.955L41.991,35.352L41.994,35.361L43.438,34.955ZM44.231,32.778L45.129,33.979L45.134,33.975L44.231,32.778ZM56.59,23.45L55.689,22.251L55.686,22.253L56.59,23.45ZM55.278,19.665L55.366,18.167L55.365,18.167L55.278,19.665ZM39.145,18.725L39.232,17.227L39.224,17.227L39.145,18.725ZM37.927,18.326L37.093,19.572L37.927,18.326ZM37.149,17.389L38.537,16.82C38.532,16.808 38.527,16.797 38.522,16.786L37.149,17.389ZM31.133,3.682L29.741,4.241C29.747,4.256 29.753,4.27 29.759,4.285L31.133,3.682ZM29,2.33L29,0.83L29,2.33ZM26.867,3.682L28.241,4.285C28.247,4.27 28.253,4.256 28.259,4.241L26.867,3.682ZM20.852,17.389L19.478,16.786C19.473,16.797 19.468,16.808 19.464,16.82L20.852,17.389ZM20.074,18.326L20.908,19.572L20.074,18.326ZM18.856,18.725L18.777,17.227L18.768,17.227L18.856,18.725ZM2.723,19.665L2.636,18.167L2.635,18.167L2.723,19.665ZM1.41,23.45L2.314,22.253L2.311,22.251L1.41,23.45ZM13.77,32.778L12.866,33.975L12.871,33.979L13.77,32.778ZM14.563,34.955L16.007,35.36L16.009,35.352L14.563,34.955ZM10.871,48.118L12.315,48.525L12.316,48.523L10.871,48.118ZM14.973,50.938L14.227,49.637L14.224,49.638L14.973,50.938ZM27.797,43.59L28.543,44.891L28.545,44.89L27.797,43.59ZM29,43.273L29,41.773L29,43.273ZM29.456,44.891L43.237,52.808L44.732,50.207L30.951,42.289L29.456,44.891ZM43.241,52.81C44.672,53.626 46.28,53.424 47.416,52.646C48.56,51.862 49.335,50.398 48.874,48.752L45.985,49.561C46.044,49.771 45.986,49.989 45.721,50.171C45.449,50.357 45.075,50.402 44.728,50.204L43.241,52.81ZM48.874,48.751L44.882,34.549L41.994,35.361L45.986,49.563L48.874,48.751ZM44.884,34.558C44.859,34.466 44.862,34.371 44.897,34.276L42.078,33.25C41.832,33.926 41.801,34.657 41.991,35.352L44.884,34.558ZM44.897,34.276C44.932,34.18 45.004,34.072 45.129,33.979L43.332,31.577C42.766,32 42.323,32.576 42.078,33.25L44.897,34.276ZM45.134,33.975L57.494,24.648L55.686,22.253L43.327,31.581L45.134,33.975ZM57.491,24.649C58.846,23.631 59.212,22.022 58.748,20.664C58.286,19.315 57.033,18.265 55.366,18.167L55.19,21.162C55.627,21.188 55.837,21.425 55.909,21.635C55.948,21.748 55.948,21.855 55.921,21.945C55.898,22.027 55.84,22.137 55.689,22.251L57.491,24.649ZM55.365,18.167L39.232,17.227L39.057,20.222L55.19,21.162L55.365,18.167ZM39.224,17.227C39.044,17.217 38.883,17.161 38.761,17.079L37.093,19.572C37.679,19.965 38.365,20.186 39.066,20.223L39.224,17.227ZM38.761,17.079C38.64,16.998 38.57,16.902 38.537,16.82L35.761,17.958C36.034,18.623 36.505,19.179 37.093,19.572L38.761,17.079ZM38.522,16.786L32.507,3.079L29.759,4.285L35.775,17.991L38.522,16.786ZM32.525,3.122C32.241,2.417 31.736,1.834 31.105,1.435L29.499,3.969C29.632,4.053 29.706,4.154 29.741,4.241L32.525,3.122ZM31.105,1.435C30.476,1.036 29.741,0.83 29,0.83L29,3.83C29.191,3.83 29.366,3.884 29.499,3.969L31.105,1.435ZM29,0.83C28.259,0.83 27.525,1.036 26.895,1.435L28.501,3.969C28.635,3.884 28.809,3.83 29,3.83L29,0.83ZM26.895,1.435C26.265,1.834 25.759,2.417 25.476,3.122L28.259,4.241C28.294,4.154 28.369,4.053 28.501,3.969L26.895,1.435ZM25.494,3.079L19.478,16.786L22.225,17.991L28.241,4.285L25.494,3.079ZM19.464,16.82C19.43,16.902 19.36,16.998 19.239,17.079L20.908,19.572C21.496,19.179 21.967,18.623 22.24,17.958L19.464,16.82ZM19.239,17.079C19.117,17.161 18.957,17.217 18.777,17.227L18.934,20.223C19.635,20.186 20.321,19.965 20.908,19.572L19.239,17.079ZM18.768,17.227L2.636,18.167L2.81,21.162L18.943,20.222L18.768,17.227ZM2.635,18.167C0.967,18.265 -0.286,19.315 -0.747,20.664C-1.212,22.022 -0.846,23.631 0.509,24.649L2.311,22.251C2.16,22.137 2.103,22.027 2.079,21.945C2.053,21.855 2.053,21.748 2.091,21.635C2.163,21.425 2.373,21.188 2.811,21.162L2.635,18.167ZM0.507,24.648L12.866,33.975L14.673,31.581L2.314,22.253L0.507,24.648ZM12.871,33.979C12.996,34.072 13.069,34.18 13.104,34.276L15.923,33.25C15.677,32.576 15.234,32 14.668,31.577L12.871,33.979ZM13.104,34.276C13.138,34.371 13.141,34.466 13.116,34.558L16.009,35.352C16.2,34.657 16.169,33.926 15.923,33.25L13.104,34.276ZM13.118,34.55L9.427,47.713L12.316,48.523L16.007,35.36L13.118,34.55ZM9.428,47.71C8.91,49.542 9.767,51.173 11.047,52.053C12.318,52.928 14.121,53.159 15.721,52.238L14.224,49.638C13.719,49.929 13.157,49.864 12.747,49.582C12.344,49.305 12.203,48.92 12.315,48.525L9.428,47.71ZM15.719,52.24L28.543,44.891L27.051,42.288L14.227,49.637L15.719,52.24ZM28.545,44.89C28.671,44.818 28.829,44.773 29,44.773L29,41.773C28.319,41.773 27.643,41.948 27.049,42.29L28.545,44.89ZM29,44.773C29.171,44.773 29.33,44.818 29.455,44.89L30.951,42.29C30.358,41.948 29.681,41.773 29,41.773L29,44.773Z" fill="#757575"/>
</svg>
