<svg width="32" height="30" viewBox="0 0 32 30" fill="none" xmlns="http://www.w3.org/2000/svg" xmlns:xlink="http://www.w3.org/1999/xlink">
<path d="M5.642,0.1C2.526,0.1 0,2.385 0,5.205L0,23.27C0,26.09 2.526,28.376 5.642,28.376L25.608,28.376C28.724,28.376 31.25,26.09 31.25,23.27L31.25,5.205C31.25,2.385 28.724,0.1 25.608,0.1L5.642,0.1ZM24.792,9.966L13.066,20.563C12.558,21.023 11.734,21.022 11.226,20.562L6.459,16.249C5.95,15.789 5.95,15.043 6.459,14.583C6.967,14.123 7.792,14.123 8.3,14.583L12.147,18.064L22.951,8.299C23.46,7.839 24.285,7.839 24.793,8.3C25.301,8.76 25.301,9.506 24.792,9.966Z" fill="#909090" fill-opacity="0.2"/>
</svg>
