<svg width="32" height="28" viewBox="0 0 32 28" fill="none" xmlns="http://www.w3.org/2000/svg" xmlns:xlink="http://www.w3.org/1999/xlink">
<path d="M5.642,-0.372C2.526,-0.372 0,1.914 0,4.734L0,22.799C0,25.619 2.526,27.904 5.642,27.904L25.608,27.904C28.724,27.904 31.25,25.619 31.25,22.799L31.25,4.734C31.25,1.914 28.724,-0.372 25.608,-0.372L5.642,-0.372ZM24.792,9.495L13.066,20.092C12.558,20.551 11.734,20.551 11.226,20.091L6.459,15.778C5.95,15.317 5.95,14.571 6.459,14.111C6.967,13.651 7.792,13.651 8.3,14.112L12.147,17.592L22.951,7.827C23.46,7.368 24.285,7.368 24.793,7.828C25.301,8.289 25.301,9.035 24.792,9.495Z" fill="#909090" fill-opacity="0.2"/>
</svg>
