<svg width="32" height="30" viewBox="0 0 32 30" fill="none" xmlns="http://www.w3.org/2000/svg" xmlns:xlink="http://www.w3.org/1999/xlink">
<path d="M5.642,0.686C2.526,0.686 0,2.972 0,5.791L0,23.856C0,26.676 2.526,28.962 5.642,28.962L25.608,28.962C28.724,28.962 31.25,26.676 31.25,23.856L31.25,5.791C31.25,2.972 28.724,0.686 25.608,0.686L5.642,0.686ZM24.792,10.552L13.066,21.149C12.558,21.609 11.734,21.609 11.226,21.149L6.459,16.835C5.95,16.375 5.95,15.629 6.459,15.169C6.967,14.709 7.792,14.709 8.3,15.169L12.147,18.65L22.951,8.885C23.46,8.425 24.285,8.425 24.793,8.886C25.301,9.346 25.301,10.092 24.792,10.552Z" fill="#909090" fill-opacity="0.2"/>
</svg>
