<svg width="32" height="28" viewBox="0 0 32 28" fill="none" xmlns="http://www.w3.org/2000/svg" xmlns:xlink="http://www.w3.org/1999/xlink">
<path d="M5.642,-0.843C2.526,-0.843 0,1.443 0,4.262L0,22.328C0,25.147 2.526,27.433 5.642,27.433L25.608,27.433C28.724,27.433 31.25,25.147 31.25,22.328L31.25,4.262C31.25,1.443 28.724,-0.843 25.608,-0.843L5.642,-0.843ZM24.792,9.023L13.066,19.62C12.558,20.08 11.734,20.08 11.226,19.62L6.459,15.306C5.95,14.846 5.95,14.1 6.459,13.64C6.967,13.18 7.792,13.18 8.3,13.64L12.147,17.121L22.951,7.356C23.46,6.896 24.285,6.897 24.793,7.357C25.301,7.817 25.301,8.563 24.792,9.023Z" fill="#909090" fill-opacity="0.2"/>
</svg>
